<svg aria-hidden="true" xmlns="http://www.w3.org/2000/svg" xmlns:xlink="http://www.w3.org/1999/xlink"><symbol viewBox="0 0 8 11" fill="none" id="arrow-bottom" xmlns="http://www.w3.org/2000/svg">
<path d="M7.18495 6.78505L7.18535 6.78544C7.22969 6.82761 7.24993 6.87962 7.25 6.92856C7.25007 6.97743 7.23003 7.02941 7.18596 7.07163C7.18591 7.07167 7.18587 7.07172 7.18583 7.07176L4.19031 9.92815L4.18995 9.9285C4.16825 9.94923 4.14111 9.96685 4.10953 9.97917L4.10952 9.97915L4.10519 9.98088C4.07416 9.99331 4.04005 10 4.00506 10C3.97006 10 3.93595 9.99331 3.90492 9.98088L3.90493 9.98086L3.90058 9.97917C3.869 9.96685 3.84186 9.94923 3.82016 9.9285L3.8198 9.92815L0.823718 7.07122L0.82377 7.07116L0.817389 7.06529C0.794559 7.04426 0.777748 7.02042 0.766688 6.99587C0.755658 6.97138 0.750235 6.946 0.750008 6.92098C0.74978 6.89597 0.754738 6.87057 0.765268 6.84603C0.775827 6.82142 0.792112 6.79743 0.814434 6.77615C0.836807 6.75482 0.864715 6.73673 0.897116 6.72409C0.929553 6.71144 0.96507 6.70481 1.00139 6.70511C1.0377 6.70541 1.07303 6.71263 1.10513 6.72577L1.29465 6.26308L1.10513 6.72577C1.13719 6.73891 1.16464 6.75737 1.1865 6.77895L1.18644 6.77901L1.19273 6.785L2.91024 8.42274L3.75529 9.22855V8.06089V1.21423C3.75529 1.1653 3.77545 1.11326 3.81972 1.07105C3.86479 1.02807 3.93079 1 4.00431 1C4.07782 1 4.14382 1.02807 4.18889 1.07105C4.23316 1.11326 4.25333 1.1653 4.25333 1.21423V8.06089V9.22855L5.09838 8.42274L6.81583 6.78505C6.8609 6.74209 6.92689 6.71403 7.00039 6.71403C7.07389 6.71403 7.13988 6.74209 7.18495 6.78505Z" fill="currentColor" stroke="currentColor"/>
</symbol><symbol viewBox="0 0 6 11" fill="none" id="arrow-bottom-filter-table" xmlns="http://www.w3.org/2000/svg">
<path d="M1 7.58301L3.16668 9.74967L5.33333 7.58301" stroke="currentColor" stroke-miterlimit="10" stroke-linecap="round" stroke-linejoin="round"/>
<path d="M3.1665 1.1665L3.1665 9.49984" stroke="currentColor" stroke-miterlimit="10" stroke-linecap="round" stroke-linejoin="round"/>
</symbol><symbol viewBox="0 0 12 12" fill="none" id="arrow-right" xmlns="http://www.w3.org/2000/svg">
<path d="M11.9348 6.34337C11.9996 6.17929 12.0166 5.99875 11.9835 5.82457C11.9504 5.65039 11.8687 5.49041 11.7487 5.36487L8.31995 1.77406C8.24088 1.68832 8.14629 1.61993 8.04171 1.57288C7.93713 1.52583 7.82465 1.50107 7.71083 1.50003C7.59701 1.499 7.48414 1.52171 7.37879 1.56685C7.27344 1.61199 7.17774 1.67864 7.09725 1.76293C7.01677 1.84722 6.95312 1.94745 6.91002 2.05777C6.86692 2.1681 6.84523 2.28631 6.84622 2.4055C6.84721 2.5247 6.87085 2.6425 6.91578 2.75202C6.9607 2.86154 7.02601 2.9606 7.10788 3.04341L9.07429 5.10274H0.857197C0.629854 5.10274 0.411823 5.19732 0.251067 5.36568C0.0903117 5.53403 0 5.76236 0 6.00045C0 6.23853 0.0903117 6.46687 0.251067 6.63522C0.411823 6.80357 0.629854 6.89815 0.857197 6.89815H9.07429L7.10874 8.95659C7.02686 9.0394 6.96156 9.13846 6.91664 9.24798C6.87171 9.3575 6.84806 9.4753 6.84707 9.5945C6.84609 9.71369 6.86777 9.8319 6.91088 9.94223C6.95398 10.0526 7.01763 10.1528 7.09811 10.2371C7.1786 10.3214 7.2743 10.388 7.37965 10.4332C7.485 10.4783 7.59787 10.501 7.71169 10.5C7.82551 10.4989 7.93799 10.4742 8.04257 10.4271C8.14715 10.3801 8.24174 10.3117 8.32081 10.2259L11.7496 6.63513C11.829 6.55155 11.8919 6.45241 11.9348 6.34337Z" fill="currentColor"/>
</symbol><symbol viewBox="0 0 10 10" fill="none" id="arrow-up" xmlns="http://www.w3.org/2000/svg">
<path d="M5.19488 0.570861L5.19524 0.571205L8.19062 3.42455C8.23191 3.46637 8.25042 3.51682 8.24999 3.56422C8.24955 3.61249 8.22939 3.66382 8.18551 3.70563C8.14083 3.74818 8.07554 3.77626 8.00253 3.77686C7.93072 3.77745 7.86568 3.75135 7.82007 3.7105L6.10468 2.07645L5.25981 1.27165V2.43848V9.28571C5.25981 9.33449 5.2397 9.38649 5.19532 9.42876C5.15012 9.47181 5.08385 9.5 5.00996 9.5C4.93607 9.5 4.8698 9.47181 4.82461 9.42876C4.78023 9.38649 4.76011 9.33449 4.76011 9.28571V2.43848V1.27235L3.91541 2.0763L2.1945 3.71418L2.19445 3.71412L2.1881 3.72037C2.16619 3.74199 2.13865 3.7605 2.10645 3.77368C2.07422 3.78687 2.03872 3.79411 2.00223 3.79442C1.96573 3.79472 1.93005 3.78806 1.89747 3.77536C1.86493 3.76268 1.83692 3.74455 1.81449 3.72318L1.81449 3.72318C1.79211 3.70186 1.77581 3.67787 1.76526 3.65329C1.75473 3.62878 1.74978 3.60343 1.75001 3.57849C1.75024 3.55354 1.75565 3.5282 1.76668 3.50375C1.77774 3.47922 1.79456 3.45537 1.81746 3.43431L1.81751 3.43436L1.82379 3.42838L4.82319 0.571205L4.82355 0.570861C4.84531 0.550089 4.87255 0.532424 4.90426 0.520068L4.90426 0.520071L4.90596 0.519405C4.97167 0.493532 5.04676 0.493532 5.11247 0.519405L5.11247 0.519408L5.11416 0.520068C5.14588 0.532425 5.17312 0.55009 5.19488 0.570861Z" fill="currentColor" stroke="currentColor"/>
</symbol><symbol viewBox="0 0 15 10" fill="none" id="filter-table" xmlns="http://www.w3.org/2000/svg">
<path d="M0.75 0.5H14.25" stroke="currentColor" stroke-miterlimit="10" stroke-linecap="round" stroke-linejoin="round"/>
<path d="M3 5H12" stroke="currentColor" stroke-miterlimit="10" stroke-linecap="round" stroke-linejoin="round"/>
<path d="M5.25 9.5H9.75" stroke="currentColor" stroke-miterlimit="10" stroke-linecap="round" stroke-linejoin="round"/>
</symbol><symbol viewBox="0 0 14 14" fill="none" id="pencil" xmlns="http://www.w3.org/2000/svg">
<path d="M9.50981 2.51041C9.63896 2.3767 9.79344 2.27004 9.96424 2.19667C10.135 2.1233 10.3188 2.08468 10.5046 2.08306C10.6905 2.08145 10.8749 2.11687 11.0469 2.18726C11.219 2.25765 11.3753 2.36161 11.5068 2.49306C11.6382 2.62451 11.7422 2.78082 11.8126 2.95288C11.883 3.12493 11.9184 3.30928 11.9168 3.49517C11.9151 3.68106 11.8765 3.86477 11.8032 4.03558C11.7298 4.20638 11.6231 4.36087 11.4894 4.49001L10.9343 5.04511L8.95471 3.06551L9.50981 2.51041V2.51041ZM7.96491 4.05531L2.09961 9.92061V11.9002H4.07921L9.94521 6.03491L7.96421 4.05531H7.96491Z" fill="currentColor"/>
</symbol><symbol viewBox="0 0 16 16" fill="none" id="search-outline" xmlns="http://www.w3.org/2000/svg">
<g clip-path="url(#gclip0_4190_2228)">
<path d="M15.2002 16L15.2003 15.5C15.1207 15.5 15.0444 15.4684 14.9882 15.4121L14.9881 15.412L11.7919 12.2159C11.7387 12.1595 11.7093 12.0848 11.71 12.0072C11.7106 11.9286 11.7422 11.8533 11.7978 11.7977L11.4443 11.4441L11.7978 11.7977C11.8534 11.7421 11.9287 11.7105 12.0073 11.7098C12.0849 11.7092 12.1597 11.7386 12.216 11.7918L15.4122 14.9879C15.4122 14.9879 15.4122 14.9879 15.4122 14.988C15.4541 15.0299 15.4827 15.0833 15.4942 15.1415C15.5058 15.1997 15.4999 15.26 15.4772 15.3148C15.4545 15.3696 15.416 15.4165 15.3667 15.4494C15.3174 15.4824 15.2594 15.5 15.2001 15.5L15.2002 16ZM15.2002 16C14.988 16 14.7846 15.9156 14.6346 15.7656L11.4345 12.5656L15.7658 14.6344C15.8776 14.7463 15.9538 14.8888 15.9846 15.044C16.0155 15.1991 15.9996 15.36 15.9391 15.5061C15.8786 15.6523 15.7761 15.7772 15.6445 15.8651C15.513 15.953 15.3584 16 15.2002 16ZM6.40058 1.1H6.40008C5.35183 1.1 4.32712 1.41084 3.45553 1.99321C2.58394 2.57558 1.90461 3.40333 1.50347 4.37178C1.10232 5.34022 0.997356 6.40588 1.20186 7.43398C1.40637 8.46208 1.91115 9.40645 2.65237 10.1477C3.3936 10.8889 4.33798 11.3937 5.36609 11.5982C6.3942 11.8027 7.45986 11.6977 8.42832 11.2966C9.39678 10.8954 10.2245 10.2161 10.8069 9.34452C11.3893 8.47294 11.7001 7.44824 11.7001 6.4V6.3995C11.6987 4.99441 11.1399 3.64728 10.1464 2.65374C9.15282 1.66019 7.80567 1.10141 6.40058 1.1ZM6.39952 12.3C5.23279 12.2999 4.09228 11.9539 3.12217 11.3057C2.15191 10.6574 1.39568 9.73591 0.949118 8.65783C0.502557 7.57975 0.385716 6.39345 0.613371 5.24897C0.841026 4.10448 1.40295 3.0532 2.22809 2.22807C3.05323 1.40294 4.10453 0.841023 5.24903 0.61337C6.39353 0.385717 7.57984 0.502557 8.65794 0.949114C9.73604 1.39567 10.6575 2.15189 11.3058 3.12214C11.954 4.09223 12.3 5.23273 12.3002 6.39944C12.2984 7.96382 11.6762 9.46363 10.57 10.5698C9.46375 11.676 7.96392 12.2982 6.39952 12.3Z" fill="currentColor" stroke="currentColor"/>
</g>
<defs>
<clipPath id="gclip0_4190_2228">
<rect width="16" height="16" fill="currentColor"/>
</clipPath>
</defs>
</symbol><symbol viewBox="0 0 14 14" fill="none" id="trash" xmlns="http://www.w3.org/2000/svg">
<path fill-rule="evenodd" clip-rule="evenodd" d="M6.29961 1.3999C6.16965 1.39997 6.04227 1.43622 5.93174 1.50459C5.82121 1.57296 5.7319 1.67075 5.67381 1.787L5.16701 2.7999H2.79961C2.61396 2.7999 2.43591 2.87365 2.30463 3.00493C2.17336 3.1362 2.09961 3.31425 2.09961 3.4999C2.09961 3.68555 2.17336 3.8636 2.30463 3.99488C2.43591 4.12615 2.61396 4.1999 2.79961 4.1999V11.1999C2.79961 11.5712 2.94711 11.9273 3.20966 12.1899C3.47221 12.4524 3.82831 12.5999 4.19961 12.5999H9.79961C10.1709 12.5999 10.527 12.4524 10.7896 12.1899C11.0521 11.9273 11.1996 11.5712 11.1996 11.1999V4.1999C11.3853 4.1999 11.5633 4.12615 11.6946 3.99488C11.8259 3.8636 11.8996 3.68555 11.8996 3.4999C11.8996 3.31425 11.8259 3.1362 11.6946 3.00493C11.5633 2.87365 11.3853 2.7999 11.1996 2.7999H8.83221L8.32541 1.787C8.26732 1.67075 8.178 1.57296 8.06748 1.50459C7.95695 1.43622 7.82957 1.39997 7.69961 1.3999H6.29961ZM4.89961 5.5999C4.89961 5.41425 4.97336 5.2362 5.10463 5.10493C5.23591 4.97365 5.41396 4.8999 5.59961 4.8999C5.78526 4.8999 5.96331 4.97365 6.09458 5.10493C6.22586 5.2362 6.29961 5.41425 6.29961 5.5999V9.7999C6.29961 9.98555 6.22586 10.1636 6.09458 10.2949C5.96331 10.4262 5.78526 10.4999 5.59961 10.4999C5.41396 10.4999 5.23591 10.4262 5.10463 10.2949C4.97336 10.1636 4.89961 9.98555 4.89961 9.7999V5.5999ZM8.39961 4.8999C8.21396 4.8999 8.03591 4.97365 7.90463 5.10493C7.77336 5.2362 7.69961 5.41425 7.69961 5.5999V9.7999C7.69961 9.98555 7.77336 10.1636 7.90463 10.2949C8.03591 10.4262 8.21396 10.4999 8.39961 10.4999C8.58526 10.4999 8.76331 10.4262 8.89458 10.2949C9.02586 10.1636 9.09961 9.98555 9.09961 9.7999V5.5999C9.09961 5.41425 9.02586 5.2362 8.89458 5.10493C8.76331 4.97365 8.58526 4.8999 8.39961 4.8999Z" fill="currentColor"/>
</symbol></svg>