<svg width="20" height="20" viewBox="0 0 20 20" fill="none" xmlns="http://www.w3.org/2000/svg">
<rect width="20" height="20" rx="10" fill="#9AA4B2"/>
<path d="M8.10882 7.62597L8.10359 7.64322L8.09962 7.6608C8.0629 7.82348 8.06272 7.99173 8.0991 8.15448C8.13546 8.31712 8.20701 8.46857 8.30688 8.60013L8.70512 8.29781L8.30491 8.59751C8.74191 9.18106 9.39703 9.58088 10.1302 9.72905C11.1386 9.93855 12.0034 10.5017 12.5446 11.2809C12.6927 11.5006 12.7892 11.7429 12.8307 11.9929C12.8717 12.2397 12.8588 12.4914 12.7923 12.7342C12.6631 13.1097 12.4284 13.4537 12.1056 13.7305C11.779 14.0106 11.3743 14.2112 10.93 14.3085L10.537 14.3945V14.7969V15.1218C10.537 15.207 10.5004 15.2988 10.4183 15.3738C10.3347 15.4503 10.2126 15.5 10.0768 15.5C9.94112 15.5 9.81895 15.4503 9.73538 15.3738C9.6533 15.2988 9.61671 15.207 9.61671 15.1218V14.8654V14.4408L9.19771 14.372C9.14619 14.3635 9.10648 14.3578 9.07241 14.3528C9.01771 14.3448 8.97758 14.339 8.92652 14.3276L8.92652 14.3276L8.92126 14.3265C8.16391 14.1662 7.4883 13.7925 6.98767 13.2663C6.91945 13.1886 6.89354 13.0988 6.90193 13.0157C6.91053 12.9305 6.95668 12.84 7.04813 12.7699C7.14091 12.6989 7.26856 12.6593 7.40292 12.6697C7.53717 12.6801 7.65171 12.7382 7.72576 12.8178L7.72566 12.8179L7.73353 12.826C8.11657 13.2197 8.61989 13.4872 9.16858 13.5977C9.73276 13.7218 10.3137 13.6921 10.7953 13.5359C11.2577 13.386 11.7389 13.0777 11.8973 12.5582L11.9029 12.5402L11.907 12.5217C11.9435 12.359 11.9434 12.1908 11.9069 12.0281C11.8705 11.8663 11.7993 11.7156 11.7001 11.5846C11.2633 11.0011 10.6085 10.6012 9.87555 10.453C8.86773 10.2443 8.00323 9.6822 7.46176 8.90399C7.3138 8.68432 7.21737 8.44216 7.17591 8.1922C7.13506 7.94588 7.14801 7.69463 7.21436 7.45224C7.35221 7.0594 7.60448 6.70159 7.95096 6.419C8.30167 6.13297 8.73469 5.93586 9.20531 5.85302L9.61863 5.78026V5.36059V4.87818C9.61863 4.79301 9.65522 4.70124 9.7373 4.62616C9.82087 4.54972 9.94304 4.5 10.0788 4.5C10.2145 4.5 10.3366 4.54972 10.4202 4.62616C10.5023 4.70124 10.5389 4.793 10.5389 4.87818V5.34654V5.76337L10.9489 5.83838C10.9895 5.84581 11.0301 5.85037 11.0506 5.85267C11.0533 5.85298 11.0556 5.85324 11.0576 5.85347C11.0717 5.8551 11.078 5.85603 11.0802 5.85635L11.0873 5.85787C11.8365 6.01701 12.5059 6.38494 13.0051 6.90291C13.0413 6.94172 13.0666 6.98411 13.0819 7.02676C13.0974 7.06986 13.103 7.114 13.0993 7.15728C13.0957 7.20062 13.0826 7.24469 13.059 7.2871C13.0352 7.32966 13.0009 7.37057 12.9555 7.40589C12.9101 7.44127 12.8551 7.46984 12.7931 7.48808C12.7311 7.50632 12.6649 7.51339 12.5986 7.50835C12.5324 7.50331 12.4693 7.48641 12.4131 7.45983C12.3569 7.43328 12.31 7.3982 12.2736 7.35862L12.2674 7.35197L12.2611 7.34554C11.8789 6.95907 11.3806 6.69605 10.838 6.58565C10.2729 6.46084 9.69137 6.49053 9.20968 6.64695C8.74717 6.79713 8.26627 7.10607 8.10882 7.62597Z" fill="white" stroke="white"/>
</svg>
