<svg width="29" height="20" viewBox="0 0 29 20" fill="none" xmlns="http://www.w3.org/2000/svg">
<rect x="0.75" y="0.25" width="27.5" height="19.5" rx="1.75" fill="white" stroke="#F1F3F9" stroke-width="0.5"/>
<mask id="mask0_4190_3605" style="mask-type:luminance" maskUnits="userSpaceOnUse" x="0" y="0" width="29" height="20">
<rect x="0.75" y="0.25" width="27.5" height="19.5" rx="1.75" fill="white" stroke="white" stroke-width="0.5"/>
</mask>
<g mask="url(#mask0_4190_3605)">
<path fill-rule="evenodd" clip-rule="evenodd" d="M0.5 6.66667H28.5V0H0.5V6.66667Z" fill="#04AAC8"/>
<path fill-rule="evenodd" clip-rule="evenodd" d="M0.5 20.0002H28.5V13.3335H0.5V20.0002Z" fill="#23C840"/>
<path fill-rule="evenodd" clip-rule="evenodd" d="M5.1665 5.3335C5.57778 5.3335 5.96007 5.20935 6.27793 4.9965C6.2411 4.99893 6.20395 5.00016 6.1665 5.00016C5.24603 5.00016 4.49984 4.25397 4.49984 3.3335C4.49984 2.41302 5.24603 1.66683 6.1665 1.66683C6.20395 1.66683 6.2411 1.66806 6.27793 1.6705C5.96007 1.45764 5.57778 1.3335 5.1665 1.3335C4.06193 1.3335 3.1665 2.22893 3.1665 3.3335C3.1665 4.43807 4.06193 5.3335 5.1665 5.3335ZM8.49984 4.66683C8.49984 5.03502 8.20136 5.3335 7.83317 5.3335C7.46498 5.3335 7.1665 5.03502 7.1665 4.66683C7.1665 4.29864 7.46498 4.00016 7.83317 4.00016C8.20136 4.00016 8.49984 4.29864 8.49984 4.66683ZM10.4998 2.66683C10.868 2.66683 11.1665 2.36835 11.1665 2.00016C11.1665 1.63197 10.868 1.3335 10.4998 1.3335C10.1316 1.3335 9.83317 1.63197 9.83317 2.00016C9.83317 2.36835 10.1316 2.66683 10.4998 2.66683ZM13.8332 2.00016C13.8332 2.36835 13.5347 2.66683 13.1665 2.66683C12.7983 2.66683 12.4998 2.36835 12.4998 2.00016C12.4998 1.63197 12.7983 1.3335 13.1665 1.3335C13.5347 1.3335 13.8332 1.63197 13.8332 2.00016ZM13.1665 5.3335C13.5347 5.3335 13.8332 5.03502 13.8332 4.66683C13.8332 4.29864 13.5347 4.00016 13.1665 4.00016C12.7983 4.00016 12.4998 4.29864 12.4998 4.66683C12.4998 5.03502 12.7983 5.3335 13.1665 5.3335ZM11.1665 4.66683C11.1665 5.03502 10.868 5.3335 10.4998 5.3335C10.1316 5.3335 9.83317 5.03502 9.83317 4.66683C9.83317 4.29864 10.1316 4.00016 10.4998 4.00016C10.868 4.00016 11.1665 4.29864 11.1665 4.66683Z" fill="white"/>
</g>
</svg>
