<svg width="145" height="30" viewBox="0 0 145 30" fill="none" xmlns="http://www.w3.org/2000/svg">
<g clip-path="url(#clip0_4012_7639)">
<path d="M22.3592 13.8721C23.4278 13.3737 24.6962 13.8372 25.1946 14.9058L25.9859 16.6047C28.1328 14.933 29.5175 12.3245 29.5175 9.39798C29.5175 4.36332 25.4215 0.267334 20.3869 0.267334C15.3522 0.267334 11.2543 4.36332 11.2543 9.39991C11.2543 9.50658 11.2582 9.61131 11.262 9.71603C11.3435 8.61252 12.2628 7.74174 13.3876 7.74174C14.5124 7.74174 15.5209 8.69592 15.5209 9.87506V17.1226C16.9309 18.0147 18.5987 18.5325 20.3869 18.5325C20.9725 18.5325 21.5447 18.4743 22.1013 18.3696L21.3275 16.7095C20.831 15.6409 21.2925 14.3725 22.3612 13.8741L22.3592 13.8721ZM15.5209 9.39798C15.5209 6.7158 17.7027 4.53205 20.3869 4.53205C23.071 4.53205 25.2528 6.71386 25.2528 9.39798C25.2528 12.0821 23.071 14.2639 20.3869 14.2639C17.7027 14.2639 15.5209 12.0821 15.5209 9.39798Z" fill="#1A8EE6"/>
<path d="M13.3876 15.2565C12.1212 13.7457 11.3338 11.8199 11.262 9.7157C11.2582 9.76806 11.2543 9.82043 11.2543 9.87473V23.5552C11.2543 24.7343 12.2085 25.6885 13.3876 25.6885C14.5667 25.6885 15.5209 24.7343 15.5209 23.5552V17.1222C14.7161 16.6141 13.9966 15.9838 13.3876 15.2585V15.2565Z" fill="#1A8EE6"/>
<path d="M13.3864 7.74231C12.2616 7.74231 11.3423 8.61309 11.2609 9.71661C11.3326 11.8208 12.12 13.7467 13.3864 15.2574C13.9954 15.9847 14.7149 16.6131 15.5198 17.1212V9.87564C15.5198 8.69649 14.5636 7.74231 13.3864 7.74231Z" fill="#114AB8"/>
<path d="M28.9363 22.7242L25.986 16.605C25.4236 17.0433 24.8069 17.4176 24.1494 17.7163C23.5017 18.011 22.8151 18.2302 22.0995 18.3679L25.0672 24.5259C25.428 25.3017 26.1979 25.7594 27.0028 25.7594C27.3034 25.7594 27.6098 25.6954 27.9026 25.5596C28.9712 25.0631 29.4328 23.7928 28.9363 22.7242Z" fill="#1A8EE6"/>
<path d="M24.1516 17.7164C24.8091 17.4177 25.4238 17.0434 25.9882 16.6051L25.1969 14.9062C24.7004 13.8376 23.4301 13.3741 22.3615 13.8725C21.2929 14.369 20.8314 15.6393 21.3278 16.7079L22.1017 18.368C22.8173 18.2323 23.5038 18.0112 24.1516 17.7164Z" fill="#1A8EE6"/>
<path fill-rule="evenodd" clip-rule="evenodd" d="M20.3736 0.267342C19.2308 0.274158 18.3065 1.20268 18.3065 2.34708V5.00129C18.9376 4.70169 19.6429 4.53399 20.3865 4.53399C21.1301 4.53399 21.8352 4.70147 22.4661 5.00071V2.34708C22.4661 1.20274 21.5419 0.274255 20.3991 0.267343C20.3949 0.267337 20.3907 0.267334 20.3865 0.267334C20.3822 0.267334 20.3779 0.267336 20.3736 0.267342ZM22.4661 18.2938V13.7991C21.8352 14.0984 21.1301 14.2658 20.3865 14.2658C19.6427 14.2658 18.9374 14.0983 18.3065 13.7989V18.2917C18.9748 18.4479 19.6712 18.5306 20.3865 18.5306V18.5325C21.1017 18.5325 21.7979 18.4499 22.4661 18.2938Z" fill="#1A8EE6"/>
<path d="M42.4833 23.2956C41.9521 23.2956 41.5586 23.2071 41.3028 23.03C41.0667 22.8726 40.9191 22.6562 40.8601 22.3807C40.8011 22.1053 40.7716 21.8003 40.7716 21.4658V10.5166C40.7716 10.1624 40.8011 9.85747 40.8601 9.60169C40.9191 9.32624 41.0667 9.11965 41.3028 8.98192C41.5586 8.82452 41.9619 8.74582 42.5128 8.74582C43.0441 8.74582 43.4277 8.81468 43.6638 8.95241C43.9196 9.09013 44.077 9.26721 44.136 9.48364C44.2147 9.68039 44.2541 9.87714 44.2541 10.0739L44.018 10.6051C44.1164 10.4477 44.2541 10.2608 44.4312 10.0444C44.6082 9.80828 44.8443 9.58201 45.1395 9.36559C45.4346 9.12948 45.7887 8.94257 46.2019 8.80484C46.6151 8.64744 47.107 8.56874 47.6776 8.56874C47.9137 8.56874 48.1596 8.59825 48.4154 8.65728C48.6908 8.69663 48.9564 8.76549 49.2122 8.86387C49.4877 8.94257 49.7336 9.05078 49.95 9.18851C50.1665 9.32624 50.3337 9.49348 50.4518 9.69023C50.5698 9.8673 50.6288 10.0739 50.6288 10.31C50.6288 10.9396 50.4714 11.4708 50.1566 11.9037C49.8418 12.3365 49.468 12.553 49.0352 12.553C48.74 12.553 48.5236 12.5235 48.3859 12.4644C48.2481 12.4054 48.1301 12.3365 48.0317 12.2578C47.953 12.1791 47.8251 12.1103 47.6481 12.0512C47.4906 11.9922 47.2349 11.9627 46.8807 11.9627C46.5856 11.9627 46.2806 12.0119 45.9658 12.1103C45.6707 12.2087 45.3952 12.3562 45.1395 12.553C44.8837 12.7497 44.6771 13.0055 44.5197 13.3203C44.3623 13.6154 44.2836 13.9597 44.2836 14.3532V21.5248C44.2836 21.8593 44.2541 22.1643 44.1951 22.4397C44.136 22.6955 43.9786 22.9021 43.7229 23.0595C43.4671 23.2169 43.0539 23.2956 42.4833 23.2956ZM58.3171 23.4727C57.3727 23.4727 56.448 23.2956 55.5429 22.9415C54.6576 22.5676 53.8509 22.0462 53.1229 21.3773C52.4146 20.7083 51.844 19.9213 51.4112 19.0163C50.998 18.1112 50.7914 17.1176 50.7914 16.0355C50.7914 14.9927 50.9881 14.0188 51.3816 13.1137C51.7752 12.2087 52.3162 11.4118 53.0048 10.7232C53.6935 10.0345 54.4805 9.50331 55.3659 9.12948C56.2709 8.73598 57.235 8.53923 58.2581 8.53923C59.6354 8.53923 60.8848 8.87371 62.0062 9.54266C63.1277 10.1919 64.023 11.0773 64.6919 12.1988C65.3609 13.3203 65.6953 14.5893 65.6953 16.006C65.6953 17.1274 65.4888 18.1506 65.0756 19.0753C64.6624 19.9803 64.1017 20.7674 63.3933 21.4363C62.685 22.0856 61.8882 22.5873 61.0028 22.9415C60.1371 23.2956 59.2419 23.4727 58.3171 23.4727ZM58.2581 19.9902C58.9074 19.9902 59.5272 19.8328 60.1174 19.518C60.7274 19.1835 61.2192 18.7113 61.5931 18.1014C61.9866 17.4914 62.1833 16.7733 62.1833 15.9469C62.1833 15.1796 62.0062 14.5008 61.6521 13.9106C61.3176 13.3203 60.8552 12.8579 60.265 12.5235C59.6747 12.189 58.9959 12.0217 58.2286 12.0217C57.5006 12.0217 56.8415 12.1988 56.2513 12.553C55.661 12.8874 55.1888 13.3596 54.8346 13.9696C54.5002 14.5598 54.3329 15.2288 54.3329 15.9764C54.3329 16.8028 54.5198 17.521 54.8937 18.1309C55.2675 18.7211 55.7495 19.1835 56.3398 19.518C56.9497 19.8328 57.5892 19.9902 58.2581 19.9902ZM79.2297 23.2366C78.6591 23.2366 78.2361 23.1284 77.9607 22.9119C77.6852 22.6955 77.5475 22.4004 77.5475 22.0266L77.7541 21.0526C77.5967 21.3084 77.3311 21.6134 76.9572 21.9675C76.5834 22.302 76.0915 22.607 75.4816 22.8824C74.8717 23.1382 74.1338 23.2661 73.2681 23.2661C72.3434 23.2661 71.4679 23.0792 70.6415 22.7054C69.8348 22.3119 69.1167 21.7806 68.4871 21.1117C67.8771 20.423 67.3853 19.6459 67.0114 18.7802C66.6573 17.8948 66.4802 16.9504 66.4802 15.9469C66.4802 14.9829 66.6573 14.0778 67.0114 13.2318C67.3853 12.3661 67.887 11.5987 68.5166 10.9298C69.1462 10.2608 69.8643 9.73942 70.671 9.36559C71.4974 8.97208 72.3631 8.77533 73.2681 8.77533C74.0748 8.77533 74.7536 8.88355 75.3045 9.09997C75.8751 9.3164 76.3571 9.59185 76.7506 9.92633C77.1441 10.2411 77.4688 10.5756 77.7246 10.9298L77.5475 10.0739C77.5475 9.64104 77.6852 9.3164 77.9607 9.09997C78.2361 8.86387 78.669 8.74582 79.2592 8.74582C79.8101 8.74582 80.2036 8.83436 80.4397 9.01143C80.6758 9.16884 80.8234 9.3951 80.8824 9.69023C80.9415 9.96568 80.971 10.2805 80.971 10.6346V21.4363C80.971 21.7708 80.9415 22.0758 80.8824 22.3512C80.8234 22.6267 80.666 22.8431 80.4102 23.0005C80.1741 23.1579 79.7806 23.2366 79.2297 23.2366ZM73.7994 19.8131C74.4683 19.8131 75.0684 19.6459 75.5996 19.3114C76.1309 18.9769 76.5539 18.5244 76.8687 17.9538C77.2032 17.3635 77.3704 16.7143 77.3704 16.006C77.3704 15.2386 77.2032 14.5697 76.8687 13.9991C76.5342 13.4285 76.0915 12.9858 75.5406 12.671C75.0094 12.3365 74.4093 12.1693 73.7403 12.1693C73.0124 12.1693 72.3631 12.3464 71.7925 12.7005C71.2219 13.035 70.7694 13.4974 70.4349 14.0876C70.1201 14.6582 69.9627 15.3075 69.9627 16.0355C69.9627 16.7438 70.1299 17.3832 70.4644 17.9538C70.7989 18.5244 71.2514 18.9769 71.822 19.3114C72.4123 19.6459 73.0714 19.8131 73.7994 19.8131ZM88.0935 23.4727C87.5819 23.4727 87.0408 23.4137 86.4703 23.2956C85.8997 23.1972 85.3488 23.0497 84.8175 22.8529C84.2863 22.6365 83.8239 22.3906 83.4304 22.1151C83.0566 21.82 82.8205 21.4953 82.7221 21.1412C82.6434 20.9444 82.6139 20.7575 82.6336 20.5804C82.6533 20.3837 82.7123 20.1869 82.8107 19.9902C82.909 19.7738 83.0566 19.5573 83.2534 19.3409C83.4304 19.1245 83.6075 19.0064 83.7846 18.9868C83.9813 18.9474 84.2273 19.0064 84.5224 19.1638C84.7782 19.2622 85.0536 19.3901 85.3488 19.5475C85.6636 19.7049 85.9784 19.8623 86.2932 20.0197C86.6277 20.1771 86.9621 20.305 87.2966 20.4034C87.6508 20.5017 87.9951 20.5509 88.3296 20.5509C89.0575 20.5509 89.638 20.4329 90.0708 20.1968C90.5037 19.941 90.7201 19.5868 90.7201 19.1343C90.7201 18.8785 90.6512 18.6523 90.5135 18.4555C90.3758 18.2588 90.1889 18.1014 89.9528 17.9833C89.7363 17.8456 89.4707 17.7275 89.1559 17.6292C88.8608 17.5111 88.5362 17.4127 88.182 17.334C87.8475 17.2357 87.4934 17.1274 87.1195 17.0094C86.6277 16.8717 86.1358 16.7044 85.6439 16.5077C85.152 16.3109 84.7093 16.0551 84.3158 15.7403C83.942 15.4255 83.637 15.032 83.4009 14.5598C83.1648 14.0876 83.0468 13.4974 83.0468 12.7891C83.0468 11.9037 83.2534 11.156 83.6665 10.5461C84.0994 9.91649 84.7192 9.43445 85.5258 9.09997C86.3325 8.76549 87.3065 8.59825 88.4476 8.59825C88.8411 8.59825 89.2149 8.62777 89.5691 8.68679C89.9429 8.74582 90.2971 8.83436 90.6316 8.95241C90.9857 9.05078 91.3202 9.17867 91.635 9.33607C91.9695 9.49348 92.2843 9.67055 92.5794 9.8673C93.0713 10.1428 93.3271 10.4674 93.3467 10.8412C93.3664 11.1954 93.2287 11.579 92.9336 11.9922C92.7171 12.2677 92.5007 12.4644 92.2843 12.5825C92.0678 12.6809 91.8416 12.6809 91.6055 12.5825C91.2907 12.4251 90.9464 12.2578 90.5725 12.0808C90.2184 11.884 89.8446 11.7168 89.451 11.579C89.0772 11.4413 88.6837 11.3725 88.2705 11.3725C87.877 11.3725 87.5229 11.4315 87.2081 11.5495C86.8933 11.6676 86.6572 11.8348 86.4998 12.0512C86.3424 12.2677 86.2637 12.5235 86.2637 12.8186C86.2637 13.094 86.3424 13.3203 86.4998 13.4974C86.6572 13.6745 86.8638 13.822 87.1195 13.9401C87.3753 14.0581 87.6803 14.1663 88.0344 14.2647C88.3886 14.3434 88.7624 14.4221 89.1559 14.5008C89.7068 14.6189 90.2676 14.7664 90.8381 14.9435C91.4087 15.1206 91.9301 15.3665 92.4023 15.6813C92.8942 15.9961 93.2877 16.4191 93.5828 16.9504C93.878 17.4619 94.0255 18.1309 94.0255 18.9572C94.0255 20.3935 93.4943 21.5052 92.4318 22.2922C91.3891 23.0792 89.9429 23.4727 88.0935 23.4727ZM100.126 23.2661C99.7326 23.2661 99.4178 23.1874 99.1817 23.03C98.9653 22.8923 98.7981 22.7152 98.68 22.4988C98.5816 22.2823 98.4931 22.0856 98.4144 21.9085L94.076 10.9298C93.958 10.5559 93.8989 10.2411 93.8989 9.98536C93.9186 9.72958 94.017 9.51315 94.1941 9.33607C94.3908 9.13932 94.6761 8.97208 95.0499 8.83436C95.6795 8.57858 96.1714 8.50972 96.5256 8.62777C96.8994 8.74582 97.1749 9.0803 97.3519 9.6312L100.156 17.0684L102.694 9.95584C102.753 9.77877 102.841 9.59185 102.959 9.3951C103.077 9.19835 103.245 9.03111 103.461 8.89338C103.697 8.73598 104.012 8.65728 104.405 8.65728C104.819 8.65728 105.143 8.73598 105.379 8.89338C105.616 9.03111 105.793 9.19835 105.911 9.3951C106.048 9.59185 106.137 9.77877 106.176 9.95584L108.714 17.1274L111.4 9.89682C111.636 9.28689 111.931 8.88355 112.285 8.68679C112.64 8.49004 113.122 8.50972 113.732 8.74582C114.282 8.98192 114.656 9.27705 114.853 9.6312C115.05 9.96568 115.03 10.4084 114.794 10.9593L110.426 21.9085C110.347 22.1053 110.249 22.3119 110.131 22.5283C110.033 22.725 109.865 22.8923 109.629 23.03C109.413 23.1874 109.118 23.2661 108.744 23.2661C108.35 23.2661 108.036 23.1972 107.799 23.0595C107.583 22.9415 107.416 22.7742 107.298 22.5578C107.18 22.3414 107.081 22.1151 107.003 21.879L104.435 14.5893L101.867 21.879C101.749 22.1545 101.641 22.4004 101.543 22.6168C101.444 22.8332 101.287 22.9907 101.071 23.089C100.854 23.2071 100.539 23.2661 100.126 23.2661ZM127.443 23.2366C126.872 23.2366 126.449 23.1284 126.174 22.9119C125.898 22.6955 125.761 22.4004 125.761 22.0266L125.967 21.0526C125.81 21.3084 125.544 21.6134 125.17 21.9675C124.796 22.302 124.305 22.607 123.695 22.8824C123.085 23.1382 122.347 23.2661 121.481 23.2661C120.556 23.2661 119.681 23.0792 118.855 22.7054C118.048 22.3119 117.33 21.7806 116.7 21.1117C116.09 20.423 115.598 19.6459 115.224 18.7802C114.87 17.8948 114.693 16.9504 114.693 15.9469C114.693 14.9829 114.87 14.0778 115.224 13.2318C115.598 12.3661 116.1 11.5987 116.73 10.9298C117.359 10.2608 118.077 9.73942 118.884 9.36559C119.71 8.97208 120.576 8.77533 121.481 8.77533C122.288 8.77533 122.967 8.88355 123.518 9.09997C124.088 9.3164 124.57 9.59185 124.964 9.92633C125.357 10.2411 125.682 10.5756 125.938 10.9298L125.761 10.0739C125.761 9.64104 125.898 9.3164 126.174 9.09997C126.449 8.86387 126.882 8.74582 127.472 8.74582C128.023 8.74582 128.417 8.83436 128.653 9.01143C128.889 9.16884 129.036 9.3951 129.095 9.69023C129.154 9.96568 129.184 10.2805 129.184 10.6346V21.4363C129.184 21.7708 129.154 22.0758 129.095 22.3512C129.036 22.6267 128.879 22.8431 128.623 23.0005C128.387 23.1579 127.994 23.2366 127.443 23.2366ZM122.012 19.8131C122.681 19.8131 123.281 19.6459 123.813 19.3114C124.344 18.9769 124.767 18.5244 125.082 17.9538C125.416 17.3635 125.583 16.7143 125.583 16.006C125.583 15.2386 125.416 14.5697 125.082 13.9991C124.747 13.4285 124.305 12.9858 123.754 12.671C123.222 12.3365 122.622 12.1693 121.953 12.1693C121.225 12.1693 120.576 12.3464 120.006 12.7005C119.435 13.035 118.982 13.4974 118.648 14.0876C118.333 14.6582 118.176 15.3075 118.176 16.0355C118.176 16.7438 118.343 17.3832 118.677 17.9538C119.012 18.5244 119.464 18.9769 120.035 19.3114C120.625 19.6459 121.284 19.8131 122.012 19.8131ZM134.343 29.1096C133.713 28.8342 133.349 28.5194 133.251 28.1652C133.153 27.8307 133.241 27.3782 133.517 26.8076L141.131 9.74925C141.406 9.11965 141.701 8.74582 142.016 8.62777C142.331 8.49004 142.813 8.5589 143.462 8.83436C144.072 9.10981 144.426 9.41478 144.525 9.74925C144.643 10.0837 144.574 10.5363 144.318 11.1068L136.645 28.2538C136.389 28.8834 136.104 29.2474 135.789 29.3457C135.474 29.4638 134.992 29.3851 134.343 29.1096ZM137.088 21.879L130.27 11.402C129.916 10.8707 129.768 10.428 129.828 10.0739C129.906 9.71974 130.221 9.37542 130.772 9.04095C131.382 8.66712 131.854 8.51955 132.189 8.59825C132.543 8.67696 132.897 8.99176 133.251 9.54266L138.652 17.9538L137.088 21.879Z" fill="#111F68"/>
<rect x="5.62744" y="13.6721" width="4.30752" height="12.4045" rx="2.15376" fill="#4BB1FF"/>
<rect y="18.5322" width="4.30752" height="7.54372" rx="2.15376" fill="#99D3FF"/>
</g>
<defs>
<clipPath id="clip0_4012_7639">
<rect width="145" height="30" fill="white"/>
</clipPath>
</defs>
</svg>
